<svg width="14395" height="3000" viewBox="0 0 14395 3000" fill="none" xmlns="http://www.w3.org/2000/svg">
<rect width="3000" height="3000" rx="1500" fill="#C69E7A"/>
<path d="M2070.36 2538.99L1900.43 2313.32L748.707 784.467" stroke="white" stroke-width="64" stroke-miterlimit="10" stroke-linecap="round"/>
<path d="M1934.38 2357.36C2134.33 2288.2 2306.43 2155.96 2424.78 1980.54C2477.81 1902 2518.99 1816.09 2547 1725.57C2592.2 1579.61 2602.5 1425.08 2577.07 1274.41C2551.65 1123.74 2491.2 981.155 2400.61 858.126C2310.02 735.097 2191.81 635.066 2055.51 566.089C1919.2 497.112 1768.6 461.116 1615.84 461H707" stroke="white" stroke-width="64" stroke-miterlimit="10" stroke-linecap="round"/>
<path d="M748.707 784.467V2410.53H1525.64" stroke="white" stroke-width="64" stroke-miterlimit="10" stroke-linecap="round"/>
<path d="M1463.56 1736.04H984.793" stroke="white" stroke-width="64" stroke-miterlimit="10" stroke-linecap="round"/>
<path d="M3544 2130L4019.2 891.4H4116L4595.6 2130H4534L4069.8 920L3601.2 2130H3544ZM3753 1703.2L3777.2 1643.8H4360.2L4384.4 1703.2H3753ZM4847.78 2075C4921.11 2075 4976.84 2075 5014.98 2075C5054.58 2075 5083.91 2075 5102.98 2075C5201.24 2075 5290.71 2067.67 5371.38 2053C5452.04 2036.87 5520.98 2008.27 5578.18 1967.2C5636.84 1926.13 5681.58 1868.93 5712.38 1795.6C5743.18 1720.8 5758.58 1625.47 5758.58 1509.6C5758.58 1380.53 5731.44 1274.93 5677.18 1192.8C5622.91 1109.2 5546.64 1047.6 5448.38 1008C5350.11 966.933 5234.98 946.4 5102.98 946.4H4847.78V2075ZM5820.18 1509.6C5820.18 1672.4 5790.11 1799.27 5729.98 1890.2C5669.84 1979.67 5586.24 2042 5479.18 2077.2C5372.11 2112.4 5246.71 2130 5102.98 2130C5080.98 2130 5045.78 2130 4997.38 2130C4948.98 2130 4879.31 2130 4788.38 2130V891.4C4883.71 891.4 4954.84 891.4 5001.78 891.4C5050.18 891.4 5083.91 891.4 5102.98 891.4C5246.71 891.4 5372.11 914.867 5479.18 961.8C5586.24 1007.27 5669.84 1075.47 5729.98 1166.4C5790.11 1257.33 5820.18 1371.73 5820.18 1509.6ZM6491.66 2130L6966.86 891.4H7063.66L7543.26 2130H7481.66L7017.46 920L6548.86 2130H6491.66ZM6700.66 1703.2L6724.86 1643.8H7307.86L7332.06 1703.2H6700.66ZM7731.63 2130V891.4H8092.43C8196.56 891.4 8283.83 901.667 8354.23 922.2C8424.63 941.267 8478.16 975.733 8514.83 1025.6C8551.5 1074 8569.83 1143.67 8569.83 1234.6C8569.83 1285.93 8559.56 1335.8 8539.03 1384.2C8518.5 1431.13 8486.23 1470 8442.23 1500.8C8398.23 1530.13 8341.03 1544.8 8270.63 1544.8C8332.23 1544.8 8379.9 1556.53 8413.63 1580C8448.83 1602 8473.76 1631.33 8488.43 1668C8503.1 1704.67 8511.9 1744.27 8514.83 1786.8C8517.76 1829.33 8518.5 1871.13 8517.03 1912.2C8517.03 1953.27 8518.5 1989.93 8521.43 2022.2C8524.36 2053 8533.16 2075.73 8547.83 2090.4C8562.5 2103.6 8587.43 2104.33 8622.63 2092.6V2147.6C8622.63 2147.6 8614.56 2148.33 8598.43 2149.8C8583.76 2152.73 8565.43 2151.27 8543.43 2145.4C8522.9 2141 8504.56 2127.8 8488.43 2105.8C8473.76 2083.8 8466.43 2048.6 8466.43 2000.2C8466.43 1903.4 8462.76 1826.4 8455.43 1769.2C8448.1 1712 8432.7 1669.47 8409.23 1641.6C8385.76 1613.73 8349.1 1595.4 8299.23 1586.6C8250.83 1576.33 8185.56 1571.93 8103.43 1573.4C8021.3 1573.4 7917.16 1573.4 7791.03 1573.4V2130H7731.63ZM7791.03 1518.4H8147.43C8231.03 1518.4 8299.96 1509.6 8354.23 1492C8408.5 1472.93 8448.83 1442.87 8475.23 1401.8C8501.63 1360.73 8514.83 1305 8514.83 1234.6C8514.83 1151 8497.96 1089.4 8464.23 1049.8C8431.96 1008.73 8384.3 981.6 8321.23 968.4C8259.63 955.2 8183.36 948.6 8092.43 948.6H7791.03V1518.4ZM9207.42 931V2130H9150.22V931H9207.42ZM8721.22 946.4V891.4H9634.22V946.4H8721.22ZM9950.13 2090.4V931H10007.3V2090.4H9950.13ZM9774.13 2130V2077.2H10181.1V2130H9774.13ZM9774.13 946.4V891.4H10181.1V946.4H9774.13ZM10902 2160.8C10839 2160.8 10777.4 2152.73 10717.2 2136.6C10658.6 2121.93 10605 2098.47 10556.6 2066.2C10508.2 2033.93 10469.4 1992.87 10440 1943C10412.2 1893.13 10397.5 1833.73 10396 1764.8H10455.4C10455.4 1767.73 10456.2 1781.67 10457.6 1806.6C10460.6 1830.07 10468.6 1858.67 10481.8 1892.4C10495 1926.13 10517 1959.13 10547.8 1991.4C10580.1 2023.67 10624.8 2050.8 10682 2072.8C10739.2 2094.8 10813.3 2105.8 10904.2 2105.8C10992.2 2105.8 11061.2 2094.8 11111 2072.8C11162.4 2050.8 11200.5 2024.4 11225.4 1993.6C11250.4 1962.8 11266.5 1933.47 11273.8 1905.6C11281.2 1877.73 11284.8 1858.67 11284.8 1848.4C11286.3 1786.8 11272.4 1736.93 11243 1698.8C11213.7 1660.67 11173.4 1630.6 11122 1608.6C11072.2 1585.13 11017.2 1566.07 10957 1551.4C10896.9 1535.27 10836.8 1519.13 10776.6 1503C10716.5 1485.4 10660.8 1464.13 10609.4 1439.2C10559.6 1414.27 10520 1380.53 10490.6 1338C10461.3 1295.47 10447.4 1240.47 10448.8 1173C10451.8 1109.93 10473.8 1055.67 10514.8 1010.2C10555.9 964.733 10610.2 930.267 10677.6 906.8C10745.1 881.867 10817.7 869.4 10895.4 869.4C10977.6 869.4 11051.6 884.067 11117.6 913.4C11183.6 942.733 11235.7 986 11273.8 1043.2C11312 1098.93 11329.6 1169.33 11326.6 1254.4H11267.2C11270.2 1186.93 11258.4 1131.93 11232 1089.4C11205.6 1046.87 11171.9 1013.87 11130.8 990.4C11091.2 965.467 11049.4 948.6 11005.4 939.8C10962.9 929.533 10925.5 924.4 10893.2 924.4C10781.8 924.4 10690.1 948.6 10618.2 997C10547.8 1043.93 10511.2 1102.6 10508.2 1173C10506.8 1233.13 10520.7 1281.53 10550 1318.2C10579.4 1354.87 10619 1384.2 10668.8 1406.2C10718.7 1428.2 10773.7 1446.53 10833.8 1461.2C10894 1475.87 10953.4 1492 11012 1509.6C11072.2 1525.73 11127.2 1547 11177 1573.4C11226.9 1598.33 11266.5 1632.8 11295.8 1676.8C11325.2 1720.8 11339.1 1778 11337.6 1848.4C11336.2 1914.4 11314.9 1970.87 11273.8 2017.8C11234.2 2063.27 11182.2 2098.47 11117.6 2123.4C11053.1 2148.33 10981.2 2160.8 10902 2160.8ZM11923 931V2130H11865.8V931H11923ZM11436.8 946.4V891.4H12349.8V946.4H11436.8ZM12518.4 2130V891.4H12879.2C12983.3 891.4 13070.6 901.667 13141 922.2C13211.4 941.267 13264.9 975.733 13301.6 1025.6C13338.2 1074 13356.6 1143.67 13356.6 1234.6C13356.6 1285.93 13346.3 1335.8 13325.8 1384.2C13305.2 1431.13 13273 1470 13229 1500.8C13185 1530.13 13127.8 1544.8 13057.4 1544.8C13119 1544.8 13166.6 1556.53 13200.4 1580C13235.6 1602 13260.5 1631.33 13275.2 1668C13289.8 1704.67 13298.6 1744.27 13301.6 1786.8C13304.5 1829.33 13305.2 1871.13 13303.8 1912.2C13303.8 1953.27 13305.2 1989.93 13308.2 2022.2C13311.1 2053 13319.9 2075.73 13334.6 2090.4C13349.2 2103.6 13374.2 2104.33 13409.4 2092.6V2147.6C13409.4 2147.6 13401.3 2148.33 13385.2 2149.8C13370.5 2152.73 13352.2 2151.27 13330.2 2145.4C13309.6 2141 13291.3 2127.8 13275.2 2105.8C13260.5 2083.8 13253.2 2048.6 13253.2 2000.2C13253.2 1903.4 13249.5 1826.4 13242.2 1769.2C13234.8 1712 13219.4 1669.47 13196 1641.6C13172.5 1613.73 13135.8 1595.4 13086 1586.6C13037.6 1576.33 12972.3 1571.93 12890.2 1573.4C12808 1573.4 12703.9 1573.4 12577.8 1573.4V2130H12518.4ZM12577.8 1518.4H12934.1C13017.8 1518.4 13086.7 1509.6 13141 1492C13195.2 1472.93 13235.6 1442.87 13262 1401.8C13288.4 1360.73 13301.6 1305 13301.6 1234.6C13301.6 1151 13284.7 1089.4 13251 1049.8C13218.7 1008.73 13171 981.6 13108 968.4C13046.4 955.2 12970.1 948.6 12879.2 948.6H12577.8V1518.4ZM13901.7 1674.6L13474.9 891.4H13538.7L13928.1 1599.8L14313.1 891.4H14374.7L13947.9 1674.6H13901.7ZM13895.1 2130V1646H13954.5V2130H13895.1Z" fill="black"/>
</svg>
