<svg width="4193" height="1000" viewBox="0 0 4193 1000" fill="none" xmlns="http://www.w3.org/2000/svg">
<path d="M613 374L425 749H307L612 137L982 875L856 861L613 374Z" fill="url(#paint0_linear_740_245)"/>
<path d="M275 599L300 649L359 530L275 362L19 875L144 861L275 599Z" fill="url(#paint1_linear_740_245)"/>
<path d="M1216.68 497.82C1196.52 497.82 1177.2 495.18 1158.72 489.9C1140.24 484.38 1125.36 477.3 1114.08 468.66L1133.88 424.74C1144.68 432.42 1157.4 438.78 1172.04 443.82C1186.92 448.62 1201.92 451.02 1217.04 451.02C1228.56 451.02 1237.8 449.94 1244.76 447.78C1251.96 445.38 1257.24 442.14 1260.6 438.06C1263.96 433.98 1265.64 429.3 1265.64 424.02C1265.64 417.3 1263 412.02 1257.72 408.18C1252.44 404.1 1245.48 400.86 1236.84 398.46C1228.2 395.82 1218.6 393.42 1208.04 391.26C1197.72 388.86 1187.28 385.98 1176.72 382.62C1166.4 379.26 1156.92 374.94 1148.28 369.66C1139.64 364.38 1132.56 357.42 1127.04 348.78C1121.76 340.14 1119.12 329.1 1119.12 315.66C1119.12 301.26 1122.96 288.18 1130.64 276.42C1138.56 264.42 1150.32 254.94 1165.92 247.98C1181.76 240.78 1201.56 237.18 1225.32 237.18C1241.16 237.18 1256.76 239.1 1272.12 242.94C1287.48 246.54 1301.04 252.06 1312.8 259.5L1294.8 303.78C1283.04 297.06 1271.28 292.14 1259.52 289.02C1247.76 285.66 1236.24 283.98 1224.96 283.98C1213.68 283.98 1204.44 285.3 1197.24 287.94C1190.04 290.58 1184.88 294.06 1181.76 298.38C1178.64 302.46 1177.08 307.26 1177.08 312.78C1177.08 319.26 1179.72 324.54 1185 328.62C1190.28 332.46 1197.24 335.58 1205.88 337.98C1214.52 340.38 1224 342.78 1234.32 345.18C1244.88 347.58 1255.32 350.34 1265.64 353.46C1276.2 356.58 1285.8 360.78 1294.44 366.06C1303.08 371.34 1310.04 378.3 1315.32 386.94C1320.84 395.58 1323.6 406.5 1323.6 419.7C1323.6 433.86 1319.64 446.82 1311.72 458.58C1303.8 470.34 1291.92 479.82 1276.08 487.02C1260.48 494.22 1240.68 497.82 1216.68 497.82ZM1441.21 496.38C1425.13 496.38 1410.73 493.26 1398.01 487.02C1385.53 480.78 1375.81 471.3 1368.85 458.58C1361.89 445.62 1358.41 429.18 1358.41 409.26V299.82H1414.57V400.98C1414.57 417.06 1417.93 428.94 1424.65 436.62C1431.61 444.06 1441.33 447.78 1453.81 447.78C1462.45 447.78 1470.13 445.98 1476.85 442.38C1483.57 438.54 1488.85 432.78 1492.69 425.1C1496.53 417.18 1498.45 407.34 1498.45 395.58V299.82H1554.61V493.5H1501.33V440.22L1511.05 455.7C1504.57 469.14 1494.97 479.34 1482.25 486.3C1469.77 493.02 1456.09 496.38 1441.21 496.38ZM1854.68 296.94C1870.04 296.94 1883.6 300.06 1895.36 306.3C1907.36 312.3 1916.72 321.66 1923.44 334.38C1930.4 346.86 1933.88 362.94 1933.88 382.62V493.5H1877.72V391.26C1877.72 375.66 1874.48 364.14 1868 356.7C1861.52 349.26 1852.4 345.54 1840.64 345.54C1832.48 345.54 1825.16 347.46 1818.68 351.3C1812.2 354.9 1807.16 360.42 1803.56 367.86C1799.96 375.3 1798.16 384.78 1798.16 396.3V493.5H1742V391.26C1742 375.66 1738.76 364.14 1732.28 356.7C1726.04 349.26 1717.04 345.54 1705.28 345.54C1697.12 345.54 1689.8 347.46 1683.32 351.3C1676.84 354.9 1671.8 360.42 1668.2 367.86C1664.6 375.3 1662.8 384.78 1662.8 396.3V493.5H1606.64V299.82H1660.28V352.74L1650.2 337.26C1656.92 324.06 1666.4 314.1 1678.64 307.38C1691.12 300.42 1705.28 296.94 1721.12 296.94C1738.88 296.94 1754.36 301.5 1767.56 310.62C1781 319.5 1789.88 333.18 1794.2 351.66L1774.4 346.26C1780.88 331.14 1791.2 319.14 1805.36 310.26C1819.76 301.38 1836.2 296.94 1854.68 296.94ZM2232.26 296.94C2247.62 296.94 2261.18 300.06 2272.94 306.3C2284.94 312.3 2294.3 321.66 2301.02 334.38C2307.98 346.86 2311.46 362.94 2311.46 382.62V493.5H2255.3V391.26C2255.3 375.66 2252.06 364.14 2245.58 356.7C2239.1 349.26 2229.98 345.54 2218.22 345.54C2210.06 345.54 2202.74 347.46 2196.26 351.3C2189.78 354.9 2184.74 360.42 2181.14 367.86C2177.54 375.3 2175.74 384.78 2175.74 396.3V493.5H2119.58V391.26C2119.58 375.66 2116.34 364.14 2109.86 356.7C2103.62 349.26 2094.62 345.54 2082.86 345.54C2074.7 345.54 2067.38 347.46 2060.9 351.3C2054.42 354.9 2049.38 360.42 2045.78 367.86C2042.18 375.3 2040.38 384.78 2040.38 396.3V493.5H1984.22V299.82H2037.86V352.74L2027.78 337.26C2034.5 324.06 2043.98 314.1 2056.22 307.38C2068.7 300.42 2082.86 296.94 2098.7 296.94C2116.46 296.94 2131.94 301.5 2145.14 310.62C2158.58 319.5 2167.46 333.18 2171.78 351.66L2151.98 346.26C2158.46 331.14 2168.78 319.14 2182.94 310.26C2197.34 301.38 2213.78 296.94 2232.26 296.94ZM2361.8 493.5V299.82H2417.96V493.5H2361.8ZM2389.88 272.82C2379.56 272.82 2371.16 269.82 2364.68 263.82C2358.2 257.82 2354.96 250.38 2354.96 241.5C2354.96 232.62 2358.2 225.18 2364.68 219.18C2371.16 213.18 2379.56 210.18 2389.88 210.18C2400.2 210.18 2408.6 213.06 2415.08 218.82C2421.56 224.34 2424.8 231.54 2424.8 240.42C2424.8 249.78 2421.56 257.58 2415.08 263.82C2408.84 269.82 2400.44 272.82 2389.88 272.82ZM2549.28 496.38C2526.48 496.38 2508.72 490.62 2496 479.1C2483.28 467.34 2476.92 449.94 2476.92 426.9V256.98H2533.08V426.18C2533.08 434.34 2535.24 440.7 2539.56 445.26C2543.88 449.58 2549.76 451.74 2557.2 451.74C2566.08 451.74 2573.64 449.34 2579.88 444.54L2595 484.14C2589.24 488.22 2582.28 491.34 2574.12 493.5C2566.2 495.42 2557.92 496.38 2549.28 496.38ZM2447.04 347.34V304.14H2581.32V347.34H2447.04ZM2699.31 493.5L2811.63 241.5H2869.23L2981.91 493.5H2920.71L2828.55 271.02H2851.59L2759.07 493.5H2699.31ZM2755.47 439.5L2770.95 395.22H2900.55L2916.39 439.5H2755.47ZM3046.46 493.5L2965.1 299.82H3023.06L3090.74 466.5H3061.94L3132.14 299.82H3186.14L3104.42 493.5H3046.46ZM3299.91 496.38C3277.83 496.38 3258.39 492.06 3241.59 483.42C3225.03 474.78 3212.19 463.02 3203.07 448.14C3193.95 433.02 3189.39 415.86 3189.39 396.66C3189.39 377.22 3193.83 360.06 3202.71 345.18C3211.83 330.06 3224.19 318.3 3239.79 309.9C3255.39 301.26 3273.03 296.94 3292.71 296.94C3311.67 296.94 3328.71 301.02 3343.83 309.18C3359.19 317.1 3371.31 328.62 3380.19 343.74C3389.07 358.62 3393.51 376.5 3393.51 397.38C3393.51 399.54 3393.39 402.06 3393.15 404.94C3392.91 407.58 3392.67 410.1 3392.43 412.5H3235.11V379.74H3362.91L3341.31 389.46C3341.31 379.38 3339.27 370.62 3335.19 363.18C3331.11 355.74 3325.47 349.98 3318.27 345.9C3311.07 341.58 3302.67 339.42 3293.07 339.42C3283.47 339.42 3274.95 341.58 3267.51 345.9C3260.31 349.98 3254.67 355.86 3250.59 363.54C3246.51 370.98 3244.47 379.86 3244.47 390.18V398.82C3244.47 409.38 3246.75 418.74 3251.31 426.9C3256.11 434.82 3262.71 440.94 3271.11 445.26C3279.75 449.34 3289.83 451.38 3301.35 451.38C3311.67 451.38 3320.67 449.82 3328.35 446.7C3336.27 443.58 3343.47 438.9 3349.95 432.66L3379.83 465.06C3370.95 475.14 3359.79 482.94 3346.35 488.46C3332.91 493.74 3317.43 496.38 3299.91 496.38ZM3548.62 296.94C3563.98 296.94 3577.66 300.06 3589.66 306.3C3601.9 312.3 3611.5 321.66 3618.46 334.38C3625.42 346.86 3628.9 362.94 3628.9 382.62V493.5H3572.74V391.26C3572.74 375.66 3569.26 364.14 3562.3 356.7C3555.58 349.26 3545.98 345.54 3533.5 345.54C3524.62 345.54 3516.58 347.46 3509.38 351.3C3502.42 354.9 3496.9 360.54 3492.82 368.22C3488.98 375.9 3487.06 385.74 3487.06 397.74V493.5H3430.9V299.82H3484.54V353.46L3474.46 337.26C3481.42 324.3 3491.38 314.34 3504.34 307.38C3517.3 300.42 3532.06 296.94 3548.62 296.94ZM3761.52 496.38C3745.44 496.38 3731.04 493.26 3718.32 487.02C3705.84 480.78 3696.12 471.3 3689.16 458.58C3682.2 445.62 3678.72 429.18 3678.72 409.26V299.82H3734.88V400.98C3734.88 417.06 3738.24 428.94 3744.96 436.62C3751.92 444.06 3761.64 447.78 3774.12 447.78C3782.76 447.78 3790.44 445.98 3797.16 442.38C3803.88 438.54 3809.16 432.78 3813 425.1C3816.84 417.18 3818.76 407.34 3818.76 395.58V299.82H3874.92V493.5H3821.64V440.22L3831.36 455.7C3824.88 469.14 3815.28 479.34 3802.56 486.3C3790.08 493.02 3776.4 496.38 3761.52 496.38ZM4023.07 496.38C4000.99 496.38 3981.55 492.06 3964.75 483.42C3948.19 474.78 3935.35 463.02 3926.23 448.14C3917.11 433.02 3912.55 415.86 3912.55 396.66C3912.55 377.22 3916.99 360.06 3925.87 345.18C3934.99 330.06 3947.35 318.3 3962.95 309.9C3978.55 301.26 3996.19 296.94 4015.87 296.94C4034.83 296.94 4051.87 301.02 4066.99 309.18C4082.35 317.1 4094.47 328.62 4103.35 343.74C4112.23 358.62 4116.67 376.5 4116.67 397.38C4116.67 399.54 4116.55 402.06 4116.31 404.94C4116.07 407.58 4115.83 410.1 4115.59 412.5H3958.27V379.74H4086.07L4064.47 389.46C4064.47 379.38 4062.43 370.62 4058.35 363.18C4054.27 355.74 4048.63 349.98 4041.43 345.9C4034.23 341.58 4025.83 339.42 4016.23 339.42C4006.63 339.42 3998.11 341.58 3990.67 345.9C3983.47 349.98 3977.83 355.86 3973.75 363.54C3969.67 370.98 3967.63 379.86 3967.63 390.18V398.82C3967.63 409.38 3969.91 418.74 3974.47 426.9C3979.27 434.82 3985.87 440.94 3994.27 445.26C4002.91 449.34 4012.99 451.38 4024.51 451.38C4034.83 451.38 4043.83 449.82 4051.51 446.7C4059.43 443.58 4066.63 438.9 4073.11 432.66L4102.99 465.06C4094.11 475.14 4082.95 482.94 4069.51 488.46C4056.07 493.74 4040.59 496.38 4023.07 496.38Z" fill="black"/>
<path d="M1154.18 801.5L1109.35 637.864H1124.53L1161.61 778.569H1162.89L1199.96 637.864H1217.22L1254.29 778.569H1255.57L1292.65 637.864H1307.91L1263.08 801.5H1247.1L1209.15 662.713H1208.11L1170.16 801.5H1154.18ZM1431.66 801.5V637.864H1526.58V651.287H1446.6V712.89H1521.55V726.314H1446.6V788.077H1528.18V801.5H1431.66ZM1662.01 801.5V637.864H1717.22C1727.87 637.864 1736.74 639.728 1743.82 643.457C1750.96 647.185 1756.32 652.272 1759.88 658.718C1763.45 665.163 1765.24 672.487 1765.24 680.69C1765.24 687.509 1764.09 693.341 1761.8 698.189C1759.51 703.036 1756.4 706.951 1752.45 709.934C1748.51 712.917 1744.12 715.074 1739.27 716.406V717.684C1744.54 718.057 1749.66 719.922 1754.61 723.277C1759.56 726.58 1763.64 731.214 1766.84 737.18C1770.03 743.146 1771.63 750.284 1771.63 758.593C1771.63 766.85 1769.79 774.227 1766.12 780.726C1762.44 787.171 1756.8 792.258 1749.18 795.987C1741.61 799.662 1731.97 801.5 1720.25 801.5H1662.01ZM1676.95 788.077H1720.25C1732.88 788.077 1742.2 785.28 1748.22 779.687C1754.29 774.094 1757.33 767.063 1757.33 758.593C1757.33 752.361 1755.81 746.715 1752.77 741.654C1749.79 736.541 1745.56 732.493 1740.07 729.51C1734.64 726.527 1728.24 725.035 1720.89 725.035H1676.95V788.077ZM1676.95 711.772H1718.58C1725.02 711.772 1730.67 710.44 1735.51 707.777C1740.36 705.113 1744.14 701.438 1746.86 696.75C1749.58 692.063 1750.94 686.71 1750.94 680.69C1750.94 672.008 1748.11 664.95 1742.47 659.517C1736.82 654.03 1728.4 651.287 1717.22 651.287H1676.95V711.772ZM2153.32 678.773C2152.41 669.664 2148.39 662.42 2141.25 657.04C2134.11 651.66 2125.14 648.97 2114.32 648.97C2106.71 648.97 2100 650.275 2094.19 652.885C2088.44 655.495 2083.91 659.117 2080.61 663.751C2077.36 668.332 2075.73 673.553 2075.73 679.412C2075.73 683.727 2076.66 687.509 2078.53 690.758C2080.39 694.007 2082.9 696.804 2086.04 699.147C2089.24 701.438 2092.75 703.409 2096.59 705.06C2100.47 706.711 2104.39 708.096 2108.33 709.215L2125.59 714.169C2130.81 715.607 2136.03 717.445 2141.25 719.682C2146.47 721.919 2151.24 724.742 2155.55 728.151C2159.92 731.507 2163.41 735.635 2166.02 740.536C2168.68 745.383 2170.02 751.216 2170.02 758.034C2170.02 766.77 2167.75 774.627 2163.22 781.605C2158.7 788.583 2152.2 794.123 2143.73 798.224C2135.26 802.272 2125.11 804.297 2113.29 804.297C2102.15 804.297 2092.48 802.459 2084.28 798.783C2076.08 795.055 2069.63 789.914 2064.95 783.363C2060.26 776.811 2057.62 769.22 2057.04 760.591H2072.38C2072.91 767.036 2075.04 772.496 2078.77 776.971C2082.5 781.445 2087.34 784.854 2093.31 787.198C2099.28 789.488 2105.93 790.634 2113.29 790.634C2121.44 790.634 2128.68 789.275 2135.02 786.559C2141.41 783.789 2146.42 779.953 2150.04 775.053C2153.72 770.099 2155.55 764.346 2155.55 757.794C2155.55 752.255 2154.11 747.62 2151.24 743.892C2148.36 740.11 2144.34 736.94 2139.17 734.384C2134.06 731.827 2128.12 729.563 2121.36 727.592L2101.78 721.839C2088.94 718.004 2078.98 712.704 2071.9 705.939C2064.81 699.174 2061.27 690.545 2061.27 680.051C2061.27 671.262 2063.61 663.538 2068.3 656.88C2073.04 650.168 2079.43 644.948 2087.48 641.219C2095.57 637.437 2104.66 635.547 2114.72 635.547C2124.9 635.547 2133.9 637.411 2141.73 641.14C2149.56 644.868 2155.77 650.009 2160.35 656.56C2164.98 663.059 2167.46 670.463 2167.78 678.773H2153.32ZM2436.87 719.682C2436.87 736.727 2433.84 751.562 2427.76 764.186C2421.69 776.757 2413.33 786.505 2402.68 793.43C2392.08 800.301 2379.88 803.737 2366.08 803.737C2352.29 803.737 2340.06 800.301 2329.41 793.43C2318.81 786.505 2310.47 776.757 2304.4 764.186C2298.38 751.562 2295.37 736.727 2295.37 719.682C2295.37 702.636 2298.38 687.828 2304.4 675.257C2310.47 662.633 2318.83 652.885 2329.49 646.013C2340.14 639.089 2352.34 635.626 2366.08 635.626C2379.88 635.626 2392.08 639.089 2402.68 646.013C2413.33 652.885 2421.69 662.633 2427.76 675.257C2433.84 687.828 2436.87 702.636 2436.87 719.682ZM2422.33 719.682C2422.33 705.033 2419.88 692.489 2414.98 682.049C2410.08 671.555 2403.39 663.538 2394.93 657.999C2386.46 652.459 2376.84 649.689 2366.08 649.689C2355.37 649.689 2345.79 652.459 2337.32 657.999C2328.85 663.538 2322.14 671.528 2317.18 681.969C2312.28 692.409 2309.83 704.98 2309.83 719.682C2309.83 734.33 2312.28 746.875 2317.18 757.315C2322.08 767.755 2328.77 775.772 2337.24 781.365C2345.71 786.905 2355.32 789.675 2366.08 789.675C2376.84 789.675 2386.46 786.905 2394.93 781.365C2403.45 775.825 2410.16 767.835 2415.06 757.395C2419.96 746.901 2422.38 734.33 2422.33 719.682ZM2569.76 801.5V637.864H2584.7V788.077H2662.68V801.5H2569.76ZM2902.14 637.864H2917.08V746.209C2917.08 757.342 2914.47 767.303 2909.25 776.092C2904.03 784.827 2896.76 791.725 2887.43 796.786C2878.16 801.793 2867.38 804.297 2855.07 804.297C2842.82 804.297 2832.04 801.766 2822.71 796.706C2813.39 791.646 2806.12 784.748 2800.9 776.012C2795.68 767.276 2793.07 757.342 2793.07 746.209V637.864H2808.01V745.17C2808.01 753.853 2809.96 761.603 2813.84 768.421C2817.73 775.186 2823.19 780.513 2830.22 784.401C2837.31 788.29 2845.59 790.234 2855.07 790.234C2864.56 790.234 2872.84 788.29 2879.92 784.401C2887.01 780.513 2892.47 775.186 2896.3 768.421C2900.19 761.603 2902.14 753.853 2902.14 745.17V637.864ZM3047.34 651.287V637.864H3166V651.287H3114.14V801.5H3099.2V651.287H3047.34ZM3311.33 637.864V801.5H3296.39V637.864H3311.33ZM3585.74 719.682C3585.74 736.727 3582.7 751.562 3576.63 764.186C3570.55 776.757 3562.19 786.505 3551.54 793.43C3540.94 800.301 3528.74 803.737 3514.94 803.737C3501.15 803.737 3488.92 800.301 3478.27 793.43C3467.67 786.505 3459.33 776.757 3453.26 764.186C3447.24 751.562 3444.23 736.727 3444.23 719.682C3444.23 702.636 3447.24 687.828 3453.26 675.257C3459.33 662.633 3467.7 652.885 3478.35 646.013C3489 639.089 3501.2 635.626 3514.94 635.626C3528.74 635.626 3540.94 639.089 3551.54 646.013C3562.19 652.885 3570.55 662.633 3576.63 675.257C3582.7 687.828 3585.74 702.636 3585.74 719.682ZM3571.19 719.682C3571.19 705.033 3568.74 692.489 3563.84 682.049C3558.94 671.555 3552.26 663.538 3543.79 657.999C3535.32 652.459 3525.7 649.689 3514.94 649.689C3504.24 649.689 3494.65 652.459 3486.18 657.999C3477.71 663.538 3471 671.528 3466.04 681.969C3461.14 692.409 3458.69 704.98 3458.69 719.682C3458.69 734.33 3461.14 746.875 3466.04 757.315C3470.95 767.755 3477.63 775.772 3486.1 781.365C3494.57 786.905 3504.18 789.675 3514.94 789.675C3525.7 789.675 3535.32 786.905 3543.79 781.365C3552.31 775.825 3559.02 767.835 3563.92 757.395C3568.82 746.901 3571.25 734.33 3571.19 719.682ZM3846.06 637.864V801.5H3831.52L3734.84 664.471H3733.56V801.5H3718.62V637.864H3733.08L3830.08 775.053H3831.36V637.864H3846.06ZM4075.17 678.773C4074.26 669.664 4070.24 662.42 4063.1 657.04C4055.96 651.66 4046.99 648.97 4036.18 648.97C4028.56 648.97 4021.85 650.275 4016.04 652.885C4010.29 655.495 4005.76 659.117 4002.46 663.751C3999.21 668.332 3997.58 673.553 3997.58 679.412C3997.58 683.727 3998.52 687.509 4000.38 690.758C4002.24 694.007 4004.75 696.804 4007.89 699.147C4011.09 701.438 4014.6 703.409 4018.44 705.06C4022.33 706.711 4026.24 708.096 4030.18 709.215L4047.44 714.169C4052.66 715.607 4057.88 717.445 4063.1 719.682C4068.32 721.919 4073.09 724.742 4077.4 728.151C4081.77 731.507 4085.26 735.635 4087.87 740.536C4090.53 745.383 4091.87 751.216 4091.87 758.034C4091.87 766.77 4089.6 774.627 4085.08 781.605C4080.55 788.583 4074.05 794.123 4065.58 798.224C4057.11 802.272 4046.96 804.297 4035.14 804.297C4024 804.297 4014.34 802.459 4006.13 798.783C3997.93 795.055 3991.48 789.914 3986.8 783.363C3982.11 776.811 3979.47 769.22 3978.89 760.591H3994.23C3994.76 767.036 3996.89 772.496 4000.62 776.971C4004.35 781.445 4009.2 784.854 4015.16 787.198C4021.13 789.488 4027.79 790.634 4035.14 790.634C4043.29 790.634 4050.53 789.275 4056.87 786.559C4063.26 783.789 4068.27 779.953 4071.89 775.053C4075.57 770.099 4077.4 764.346 4077.4 757.794C4077.4 752.255 4075.97 747.62 4073.09 743.892C4070.21 740.11 4066.19 736.94 4061.02 734.384C4055.91 731.827 4049.97 729.563 4043.21 727.592L4023.63 721.839C4010.79 718.004 4000.83 712.704 3993.75 705.939C3986.66 699.174 3983.12 690.545 3983.12 680.051C3983.12 671.262 3985.47 663.538 3990.15 656.88C3994.89 650.168 4001.29 644.948 4009.33 641.219C4017.43 637.437 4026.51 635.547 4036.58 635.547C4046.75 635.547 4055.75 637.411 4063.58 641.14C4071.41 644.868 4077.62 650.009 4082.2 656.56C4086.83 663.059 4089.31 670.463 4089.63 678.773H4075.17Z" fill="black"/>
<defs>
<linearGradient id="paint0_linear_740_245" x1="644.5" y1="137" x2="644.5" y2="875" gradientUnits="userSpaceOnUse">
<stop offset="0.19988" stop-color="#6C92C7"/>
<stop offset="1" stop-color="#1D3557"/>
</linearGradient>
<linearGradient id="paint1_linear_740_245" x1="189" y1="362" x2="189" y2="875" gradientUnits="userSpaceOnUse">
<stop offset="0.19988" stop-color="#6C92C7"/>
<stop offset="1" stop-color="#1D3557"/>
</linearGradient>
</defs>
</svg>
